ffmpeg version 7.1.1-essentials_build-www.gyan.dev Copyright (c) 2000-2025 the FFmpeg developers
  built with gcc 14.2.0 (Rev1, Built by MSYS2 project)
  configuration: --enable-gpl --enable-version3 --enable-static --disable-w32threads --disable-autodetect --enable-fontconfig --enable-iconv --enable-gnutls --enable-libxml2 --enable-gmp --enable-bzlib --enable-lzma --enable-zlib --enable-libsrt --enable-libssh --enable-libzmq --enable-avisynth --enable-sdl2 --enable-libwebp --enable-libx264 --enable-libx265 --enable-libxvid --enable-libaom --enable-libopenjpeg --enable-libvpx --enable-mediafoundation --enable-libass --enable-libfreetype --enable-libfribidi --enable-libharfbuzz --enable-libvidstab --enable-libvmaf --enable-libzimg --enable-amf --enable-cuda-llvm --enable-cuvid --enable-dxva2 --enable-d3d11va --enable-d3d12va --enable-ffnvcodec --enable-libvpl --enable-nvdec --enable-nvenc --enable-vaapi --enable-libgme --enable-libopenmpt --enable-libopencore-amrwb --enable-libmp3lame --enable-libtheora --enable-libvo-amrwbenc --enable-libgsm --enable-libopencore-amrnb --enable-libopus --enable-libspeex --enable-libvorbis --enable-librubberband
  libavutil      59. 39.100 / 59. 39.100
  libavcodec     61. 19.101 / 61. 19.101
  libavformat    61.  7.100 / 61.  7.100
  libavdevice    61.  3.100 / 61.  3.100
  libavfilter    10.  4.100 / 10.  4.100
  libswscale      8.  3.100 /  8.  3.100
  libswresample   5.  3.100 /  5.  3.100
  libpostproc    58.  3.100 / 58.  3.100
Input #0, mov,mp4,m4a,3gp,3g2,mj2, from 'D:\项目\sewageWatch\Node.js\sample.mp4':
  Metadata:
    major_brand     : isom
    minor_version   : 512
    compatible_brands: isomiso2avc1mp41
    encoder         : Lavf58.20.100
  Duration: 00:00:04.63, start: 0.000000, bitrate: 1790 kb/s
  Stream #0:0[0x1](und): Video: h264 (High) (avc1 / 0x31637661), yuv420p(tv, bt709, progressive), 960x544, 1732 kb/s, 30 fps, 30 tbr, 90k tbn (default)
      Metadata:
        handler_name    : VideoHandler
        vendor_id       : [0][0][0][0]
  Stream #0:1[0x2](und): Audio: aac (LC) (mp4a / 0x6134706D), 48000 Hz, mono, fltp, 48 kb/s (default)
      Metadata:
        handler_name    : SoundHandler
        vendor_id       : [0][0][0][0]
Stream mapping:
  Stream #0:0 -> #0:0 (copy)
  Stream #0:1 -> #0:1 (copy)
Output #0, flv, to 'rtmp://localhost:1935/live/stream1':
  Metadata:
    major_brand     : isom
    minor_version   : 512
    compatible_brands: isomiso2avc1mp41
    encoder         : Lavf61.7.100
  Stream #0:0(und): Video: h264 (High) ([7][0][0][0] / 0x0007), yuv420p(tv, bt709, progressive), 960x544, q=2-31, 1732 kb/s, 30 fps, 30 tbr, 1k tbn (default)
      Metadata:
        handler_name    : VideoHandler
        vendor_id       : [0][0][0][0]
  Stream #0:1(und): Audio: aac (LC) ([10][0][0][0] / 0x000A), 48000 Hz, mono, fltp, 48 kb/s (default)
      Metadata:
        handler_name    : SoundHandler
        vendor_id       : [0][0][0][0]
Press [q] to stop, [?] for help
frame=   32 fps=0.0 q=-1.0 size=     248KiB time=00:00:01.02 bitrate=1986.4kbits/s speed=1.96x    frame=   47 fps= 46 q=-1.0 size=     356KiB time=00:00:01.53 bitrate=1902.4kbits/s speed=1.49x    frame=   63 fps= 41 q=-1.0 size=     479KiB time=00:00:02.03 bitrate=1931.3kbits/s speed=1.32x    frame=   78 fps= 38 q=-1.0 size=     580KiB time=00:00:02.56 bitrate=1854.5kbits/s speed=1.24x    frame=   94 fps= 36 q=-1.0 size=     708KiB time=00:00:03.06 bitrate=1892.3kbits/s speed=1.19x    frame=  109 fps= 35 q=-1.0 size=     802KiB time=00:00:03.58 bitrate=1833.1kbits/s speed=1.16x    frame=  125 fps= 35 q=-1.0 size=     922KiB time=00:00:04.10 bitrate=1842.4kbits/s speed=1.14x    frame=  139 fps= 34 q=-1.0 size=    1014KiB time=00:00:04.60 bitrate=1805.7kbits/s speed=1.12x    frame=  156 fps= 34 q=-1.0 size=    1143KiB time=00:00:05.13 bitrate=1824.1kbits/s speed=1.11x    frame=  171 fps= 33 q=-1.0 size=    1262KiB time=00:00:05.65 bitrate=1827.3kbits/s speed= 1.1x    frame=  187 fps= 33 q=-1.0 size=    1371KiB time=00:00:06.19 bitrate=1814.1kbits/s speed=1.09x    frame=  202 fps= 33 q=-1.0 size=    1493KiB time=00:00:06.68 bitrate=1830.8kbits/s speed=1.08x    frame=  218 fps= 33 q=-1.0 size=    1600KiB time=00:00:07.19 bitrate=1822.0kbits/s speed=1.07x    frame=  233 fps= 32 q=-1.0 size=    1722KiB time=00:00:07.70 bitrate=1830.9kbits/s speed=1.07x    frame=  249 fps= 32 q=-1.0 size=    1824KiB time=00:00:08.23 bitrate=1813.4kbits/s speed=1.07x    frame=  264 fps= 32 q=-1.0 size=    1936KiB time=00:00:08.75 bitrate=1812.1kbits/s speed=1.06x    frame=  279 fps= 32 q=-1.0 size=    2028KiB time=00:00:09.26 bitrate=1793.1kbits/s speed=1.06x    frame=  295 fps= 32 q=-1.0 size=    2157KiB time=00:00:09.77 bitrate=1807.0kbits/s speed=1.05x    frame=  310 fps= 32 q=-1.0 size=    2283KiB time=00:00:10.29 bitrate=1817.3kbits/s speed=1.05x    frame=  326 fps= 32 q=-1.0 size=    2384KiB time=00:00:10.82 bitrate=1804.6kbits/s speed=1.05x    frame=  341 fps= 31 q=-1.0 size=    2507KiB time=00:00:11.31 bitrate=1815.0kbits/s speed=1.05x    frame=  357 fps= 31 q=-1.0 size=    2614KiB time=00:00:11.82 bitrate=1810.3kbits/s speed=1.04x    frame=  372 fps= 31 q=-1.0 size=    2736KiB time=00:00:12.36 bitrate=1813.2kbits/s speed=1.04x    frame=  388 fps= 31 q=-1.0 size=    2837KiB time=00:00:12.86 bitrate=1806.5kbits/s speed=1.04x    frame=  403 fps= 31 q=-1.0 size=    2950KiB time=00:00:13.38 bitrate=1805.3kbits/s speed=1.04x    frame=  419 fps= 31 q=-1.0 size=    3066KiB time=00:00:13.89 bitrate=1807.4kbits/s speed=1.04x    frame=  434 fps= 31 q=-1.0 size=    3171KiB time=00:00:14.43 bitrate=1799.5kbits/s speed=1.04x    frame=  449 fps= 31 q=-1.0 size=    3297KiB time=00:00:14.92 bitrate=1809.5kbits/s speed=1.03x    frame=  465 fps= 31 q=-1.0 size=    3398KiB time=00:00:15.43 bitrate=1803.3kbits/s speed=1.03x    frame=  481 fps= 31 q=-1.0 size=    3527KiB time=00:00:15.96 bitrate=1809.4kbits/s speed=1.03x    frame=  496 fps= 31 q=-1.0 size=    3627KiB time=00:00:16.48 bitrate=1802.8kbits/s speed=1.03x    frame=  511 fps= 31 q=-1.0 size=    3749KiB time=00:00:16.99 bitrate=1807.4kbits/s speed=1.03x    frame=  527 fps= 31 q=-1.0 size=    3851KiB time=00:00:17.50 bitrate=1802.7kbits/s speed=1.03x    frame=  543 fps= 31 q=-1.0 size=    3964KiB time=00:00:18.03 bitrate=1800.7kbits/s speed=1.03x    frame=  558 fps= 31 q=-1.0 size=    4079KiB time=00:00:18.55 bitrate=1801.1kbits/s speed=1.03x    frame=  573 fps= 31 q=-1.0 size=    4184KiB time=00:00:19.06 bitrate=1797.7kbits/s speed=1.03x    frame=  588 fps= 31 q=-1.0 size=    4310KiB time=00:00:19.56 bitrate=1804.5kbits/s speed=1.03x    frame=  604 fps= 31 q=-1.0 size=    4412KiB time=00:00:20.09 bitrate=1798.9kbits/s speed=1.03x    frame=  620 fps= 31 q=-1.0 size=    4541KiB time=00:00:20.60 bitrate=1805.5kbits/s speed=1.02x    frame=  635 fps= 31 q=-1.0 size=    4641KiB time=00:00:21.11 bitrate=1800.6kbits/s speed=1.02x    frame=  651 fps= 31 q=-1.0 size=    4769KiB time=00:00:21.63 bitrate=1805.9kbits/s speed=1.02x    frame=  666 fps= 31 q=-1.0 size=    4865KiB time=00:00:22.13 bitrate=1800.1kbits/s speed=1.02x    frame=  681 fps= 31 q=-1.0 size=    4977KiB time=00:00:22.65 bitrate=1799.9kbits/s speed=1.02x    frame=  697 fps= 31 q=-1.0 size=    5093KiB time=00:00:23.16 bitrate=1801.3kbits/s speed=1.02x    frame=  712 fps= 31 q=-1.0 size=    5198KiB time=00:00:23.70 bitrate=1796.6kbits/s speed=1.02x    frame=  728 fps= 31 q=-1.0 size=    5324KiB time=00:00:24.21 bitrate=1801.3kbits/s speed=1.02x    frame=  743 fps= 31 q=-1.0 size=    5425KiB time=00:00:24.72 bitrate=1797.6kbits/s speed=1.02x    frame=  759 fps= 31 q=-1.0 size=    5554KiB time=00:00:25.23 bitrate=1803.2kbits/s speed=1.02x    frame=  774 fps= 31 q=-1.0 size=    5655KiB time=00:00:25.76 bitrate=1797.8kbits/s speed=1.02x    frame=  790 fps= 31 q=-1.0 size=    5783KiB time=00:00:26.26 bitrate=1803.5kbits/s speed=1.02x    frame=  805 fps= 31 q=-1.0 size=    5878KiB time=00:00:26.79 bitrate=1797.3kbits/s speed=1.02x    frame=  821 fps= 31 q=-1.0 size=    5991KiB time=00:00:27.30 bitrate=1797.8kbits/s speed=1.02x    frame=  836 fps= 31 q=-1.0 size=    6107KiB time=00:00:27.82 bitrate=1798.3kbits/s speed=1.02x    frame=  852 fps= 31 q=-1.0 size=    6212KiB time=00:00:28.33 bitrate=1796.2kbits/s speed=1.02x    frame=  867 fps= 31 q=-1.0 size=    6338KiB time=00:00:28.86 bitrate=1798.5kbits/s speed=1.02x    frame=  883 fps= 31 q=-1.0 size=    6446KiB time=00:00:29.36 bitrate=1798.0kbits/s speed=1.02x    frame=  898 fps= 31 q=-1.0 size=    6575KiB time=00:00:29.90 bitrate=1801.5kbits/s speed=1.02x    frame=  914 fps= 31 q=-1.0 size=    6679KiB time=00:00:30.40 bitrate=1799.8kbits/s speed=1.02x    frame=  929 fps= 31 q=-1.0 size=    6796KiB time=00:00:30.91 bitrate=1800.9kbits/s speed=1.02x    frame=  944 fps= 31 q=-1.0 size=    6898KiB time=00:00:31.42 bitrate=1798.2kbits/s speed=1.02x    frame=  959 fps= 30 q=-1.0 size=    7004KiB time=00:00:31.93 bitrate=1796.5kbits/s speed=1.02x    frame=  975 fps= 31 q=-1.0 size=    7121KiB time=00:00:32.45 bitrate=1797.4kbits/s speed=1.02x    frame=  991 fps= 31 q=-1.0 size=    7233KiB time=00:00:32.98 bitrate=1796.2kbits/s speed=1.02x    frame= 1007 fps= 31 q=-1.0 size=    7358KiB time=00:00:33.50 bitrate=1799.3kbits/s speed=1.01x    frame= 1022 fps= 30 q=-1.0 size=    7459KiB time=00:00:34.03 bitrate=1795.5kbits/s speed=1.02x    frame= 1038 fps= 30 q=-1.0 size=    7589KiB time=00:00:34.54 bitrate=1799.6kbits/s speed=1.01x    frame= 1053 fps= 30 q=-1.0 size=    7693KiB time=00:00:35.05 bitrate=1797.6kbits/s speed=1.01x    frame= 1068 fps= 30 q=-1.0 size=    7810KiB time=00:00:35.54 bitrate=1799.8kbits/s speed=1.01x    frame= 1084 fps= 30 q=-1.0 size=    7912KiB time=00:00:36.08 bitrate=1796.4kbits/s speed=1.01x    frame= 1099 fps= 30 q=-1.0 size=    8024KiB time=00:00:36.59 bitrate=1796.4kbits/s speed=1.01x    frame= 1115 fps= 30 q=-1.0 size=    8134KiB time=00:00:37.10 bitrate=1796.1kbits/s speed=1.01x    frame= 1130 fps= 30 q=-1.0 size=    8247KiB time=00:00:37.63 bitrate=1795.1kbits/s speed=1.01x    frame= 1146 fps= 30 q=-1.0 size=    8372KiB time=00:00:38.15 bitrate=1797.4kbits/s speed=1.01x    frame= 1161 fps= 30 q=-1.0 size=    8473KiB time=00:00:38.64 bitrate=1796.1kbits/s speed=1.01x    frame= 1176 fps= 30 q=-1.0 size=    8602KiB time=00:00:39.15 bitrate=1799.7kbits/s speed=1.01x    frame= 1192 fps= 30 q=-1.0 size=    8715KiB time=00:00:39.69 bitrate=1798.7kbits/s speed=1.01x    frame= 1208 fps= 30 q=-1.0 size=    8826KiB time=00:00:40.20 bitrate=1798.5kbits/s speed=1.01x    frame= 1223 fps= 30 q=-1.0 size=    8926KiB time=00:00:40.73 bitrate=1795.1kbits/s speed=1.01x    frame= 1239 fps= 30 q=-1.0 size=    9038KiB time=00:00:41.26 bitrate=1794.2kbits/s speed=1.01x    frame= 1254 fps= 30 q=-1.0 size=    9148KiB time=00:00:41.76 bitrate=1794.4kbits/s speed=1.01x    frame= 1270 fps= 30 q=-1.0 size=    9260KiB time=00:00:42.26 bitrate=1794.8kbits/s speed=1.01x    frame= 1285 fps= 30 q=-1.0 size=    9393KiB time=00:00:42.78 bitrate=1798.3kbits/s speed=1.01x    frame= 1301 fps= 30 q=-1.0 size=    9497KiB time=00:00:43.30 bitrate=1796.7kbits/s speed=1.01x    frame= 1316 fps= 30 q=-1.0 size=    9616KiB time=00:00:43.83 bitrate=1797.2kbits/s speed=1.01x    frame= 1332 fps= 30 q=-1.0 size=    9729KiB time=00:00:44.34 bitrate=1797.2kbits/s speed=1.01x    frame= 1347 fps= 30 q=-1.0 size=    9846KiB time=00:00:44.86 bitrate=1797.7kbits/s speed=1.01x    frame= 1363 fps= 30 q=-1.0 size=    9946KiB time=00:00:45.36 bitrate=1795.9kbits/s speed=1.01x    frame= 1378 fps= 30 q=-1.0 size=   10052KiB time=00:00:45.90 bitrate=1794.0kbits/s speed=1.01x    frame= 1393 fps= 30 q=-1.0 size=   10170KiB time=00:00:46.39 bitrate=1795.7kbits/s speed=1.01x    frame= 1409 fps= 30 q=-1.0 size=   10274KiB time=00:00:46.93 bitrate=1793.4kbits/s speed=1.01x    frame= 1424 fps= 30 q=-1.0 size=   10399KiB time=00:00:47.42 bitrate=1796.4kbits/s speed=1.01x    frame= 1440 fps= 30 q=-1.0 size=   10511KiB time=00:00:47.95 bitrate=1795.5kbits/s speed=1.01x    frame= 1456 fps= 30 q=-1.0 size=   10631KiB time=00:00:48.48 bitrate=1796.1kbits/s speed=1.01x    frame= 1471 fps= 30 q=-1.0 size=   10742KiB time=00:00:48.97 bitrate=1796.7kbits/s speed=1.01x    frame= 1487 fps= 30 q=-1.0 size=   10859KiB time=00:00:49.50 bitrate=1797.2kbits/s speed=1.01x    frame= 1502 fps= 30 q=-1.0 size=   10967KiB time=00:00:50.02 bitrate=1795.9kbits/s speed=1.01x    frame= 1518 fps= 30 q=-1.0 size=   11075KiB time=00:00:50.53 bitrate=1795.4kbits/s speed=1.01x    frame= 1533 fps= 30 q=-1.0 size=   11184KiB time=00:00:51.06 bitrate=1794.2kbits/s speed=1.01x    frame= 1549 fps= 30 q=-1.0 size=   11299KiB time=00:00:51.58 bitrate=1794.3kbits/s speed=1.01x    frame= 1564 fps= 30 q=-1.0 size=   11421KiB time=00:00:52.10 bitrate=1795.8kbits/s speed=1.01x    frame= 1580 fps= 30 q=-1.0 size=   11533KiB time=00:00:52.58 bitrate=1796.5kbits/s speed=1.01x    frame= 1595 fps= 30 q=-1.0 size=   11645KiB time=00:00:53.12 bitrate=1795.8kbits/s speed=1.01x    frame= 1611 fps= 30 q=-1.0 size=   11763KiB time=00:00:53.63 bitrate=1796.7kbits/s speed=1.01x    frame= 1626 fps= 30 q=-1.0 size=   11873KiB time=00:00:54.16 bitrate=1795.7kbits/s speed=1.01x    frame= 1642 fps= 30 q=-1.0 size=   11980KiB time=00:00:54.66 bitrate=1795.3kbits/s speed=1.01x    frame= 1657 fps= 30 q=-1.0 size=   12089KiB time=00:00:55.19 bitrate=1794.3kbits/s speed=1.01x    frame= 1673 fps= 30 q=-1.0 size=   12207KiB time=00:00:55.70 bitrate=1795.1kbits/s speed=1.01x    frame= 1688 fps= 30 q=-1.0 size=   12312KiB time=00:00:56.20 bitrate=1794.7kbits/s speed=1.01x    frame= 1703 fps= 30 q=-1.0 size=   12434KiB time=00:00:56.73 bitrate=1795.4kbits/s speed=1.01x    frame= 1719 fps= 30 q=-1.0 size=   12547KiB time=00:00:57.24 bitrate=1795.6kbits/s speed=1.01x    frame= 1734 fps= 30 q=-1.0 size=   12665KiB time=00:00:57.75 bitrate=1796.5kbits/s speed=1.01x    frame= 1750 fps= 30 q=-1.0 size=   12777KiB time=00:00:58.26 bitrate=1796.4kbits/s speed=1.01x    frame= 1766 fps= 30 q=-1.0 size=   12896KiB time=00:00:58.82 bitrate=1796.0kbits/s speed=1.01x    frame= 1781 fps= 30 q=-1.0 size=   12994KiB time=00:00:59.31 bitrate=1794.7kbits/s speed=1.01x    frame= 1797 fps= 30 q=-1.0 size=   13110KiB time=00:00:59.82 bitrate=1795.2kbits/s speed=1.01x    frame= 1812 fps= 30 q=-1.0 size=   13221KiB time=00:01:00.33 bitrate=1795.1kbits/s speed=1.01x    frame= 1827 fps= 30 q=-1.0 size=   13326KiB time=00:01:00.85 bitrate=1794.0kbits/s speed=1.01x    frame= 1843 fps= 30 q=-1.0 size=   13448KiB time=00:01:01.36 bitrate=1795.3kbits/s speed=1.01x    frame= 1858 fps= 30 q=-1.0 size=   13560KiB time=00:01:01.89 bitrate=1794.7kbits/s speed=1.01x    frame= 1874 fps= 30 q=-1.0 size=   13679KiB time=00:01:02.38 bitrate=1796.1kbits/s speed=1.01x    frame= 1889 fps= 30 q=-1.0 size=   13797KiB time=00:01:02.93 bitrate=1796.0kbits/s speed=1.01x    frame= 1904 fps= 30 q=-1.0 size=   13901KiB time=00:01:03.43 bitrate=1795.2kbits/s speed=1.01x    frame= 1920 fps= 30 q=-1.0 size=   14008KiB time=00:01:03.96 bitrate=1793.9kbits/s speed=1.01x    frame= 1935 fps= 30 q=-1.0 size=   14116KiB time=00:01:04.45 bitrate=1794.0kbits/s speed=1.01x    frame= 1951 fps= 30 q=-1.0 size=   14234KiB time=00:01:04.99 bitrate=1794.1kbits/s speed=1.01x    frame= 1966 fps= 30 q=-1.0 size=   14340KiB time=00:01:05.48 bitrate=1793.8kbits/s speed=1.01x    frame= 1982 fps= 30 q=-1.0 size=   14462KiB time=00:01:06.01 bitrate=1794.6kbits/s speed=1.01x    frame= 1998 fps= 30 q=-1.0 size=   14581KiB time=00:01:06.53 bitrate=1795.3kbits/s speed=1.01x    frame= 2013 fps= 30 q=-1.0 size=   14693KiB time=00:01:07.04 bitrate=1795.3kbits/s speed=1.01x    frame= 2028 fps= 30 q=-1.0 size=   14811KiB time=00:01:07.55 bitrate=1796.0kbits/s speed=1.01x    frame= 2044 fps= 30 q=-1.0 size=   14923KiB time=00:01:08.06 bitrate=1796.0kbits/s speed=1.01x    frame= 2059 fps= 30 q=-1.0 size=   15021KiB time=00:01:08.57 bitrate=1794.4kbits/s speed=1.01x    frame= 2075 fps= 30 q=-1.0 size=   15137KiB time=00:01:09.11 bitrate=1794.2kbits/s speed=1.01x    frame= 2090 fps= 30 q=-1.0 size=   15248KiB time=00:01:09.62 bitrate=1794.0kbits/s speed=1.01x    frame= 2106 fps= 30 q=-1.0 size=   15362KiB time=00:01:10.13 bitrate=1794.4kbits/s speed=1.01x    frame= 2121 fps= 30 q=-1.0 size=   15476KiB time=00:01:10.65 bitrate=1794.4kbits/s speed=1.01x    frame= 2136 fps= 30 q=-1.0 size=   15595KiB time=00:01:11.16 bitrate=1795.2kbits/s speed=1.01x    frame= 2152 fps= 30 q=-1.0 size=   15706KiB time=00:01:11.66 bitrate=1795.3kbits/s speed=1.01x    frame= 2168 fps= 30 q=-1.0 size=   15824KiB time=00:01:12.20 bitrate=1795.2kbits/s speed=1.01x    frame= 2183 fps= 30 q=-1.0 size=   15936KiB time=00:01:12.72 bitrate=1795.2kbits/s speed=1.01x    frame= 2199 fps= 30 q=-1.0 size=   16037KiB time=00:01:13.23 bitrate=1793.9kbits/s speed=1.01x    frame= 2214 fps= 30 q=-1.0 size=   16151KiB time=00:01:13.76 bitrate=1793.6kbits/s speed=1.01x    frame= 2229 fps= 30 q=-1.0 size=   16262KiB time=00:01:14.26 bitrate=1793.8kbits/s speed=1.01x    frame= 2245 fps= 30 q=-1.0 size=   16376KiB time=00:01:14.79 bitrate=1793.6kbits/s speed=1.01x    frame= 2260 fps= 30 q=-1.0 size=   16490KiB time=00:01:15.30 bitrate=1793.9kbits/s speed=1.01x    frame= 2276 fps= 30 q=-1.0 size=   16609KiB time=00:01:15.81 bitrate=1794.5kbits/s speed=1.01x    frame= 2291 fps= 30 q=-1.0 size=   16731KiB time=00:01:16.33 bitrate=1795.6kbits/s speed=1.01x    frame= 2307 fps= 30 q=-1.0 size=   16838KiB time=00:01:16.84 bitrate=1795.1kbits/s speed=1.01x    frame= 2322 fps= 30 q=-1.0 size=   16957KiB time=00:01:17.35 bitrate=1795.8kbits/s speed=1.01x    frame= 2337 fps= 30 q=-1.0 size=   17049KiB time=00:01:17.88 bitrate=1793.1kbits/s speed=1.01x    frame= 2353 fps= 30 q=-1.0 size=   17164KiB time=00:01:18.37 bitrate=1794.0kbits/s speed=1.01x    frame= 2369 fps= 30 q=-1.0 size=   17276KiB time=00:01:18.89 bitrate=1793.8kbits/s speed=1.01x    frame= 2384 fps= 30 q=-1.0 size=   17389KiB time=00:01:19.42 bitrate=1793.5kbits/s speed=1.01x    frame= 2400 fps= 30 q=-1.0 size=   17510KiB time=00:01:19.93 bitrate=1794.5kbits/s speed=1.01x    frame= 2415 fps= 30 q=-1.0 size=   17622KiB time=00:01:20.45 bitrate=1794.4kbits/s speed=1.01x    frame= 2431 fps= 30 q=-1.0 size=   17745KiB time=00:01:20.96 bitrate=1795.4kbits/s speed=1.01x    frame= 2446 fps= 30 q=-1.0 size=   17852KiB time=00:01:21.47 bitrate=1794.9kbits/s speed=1.01x    frame= 2461 fps= 30 q=-1.0 size=   17971KiB time=00:01:21.98 bitrate=1795.6kbits/s speed=1.01x    frame= 2477 fps= 30 q=-1.0 size=   18064KiB time=00:01:22.52 bitrate=1793.3kbits/s speed=1.01x    frame= 2492 fps= 30 q=-1.0 size=   18178KiB time=00:01:23.03 bitrate=1793.4kbits/s speed=1.01x    frame= 2508 fps= 30 q=-1.0 size=   18290KiB time=00:01:23.53 bitrate=1793.6kbits/s speed=1.01x    frame= 2523 fps= 30 q=-1.0 size=   18403KiB time=00:01:24.06 bitrate=1793.4kbits/s speed=1.01x    frame= 2539 fps= 30 q=-1.0 size=   18524KiB time=00:01:24.56 bitrate=1794.4kbits/s speed=1.01x    frame= 2554 fps= 30 q=-1.0 size=   18636KiB time=00:01:25.10 bitrate=1793.9kbits/s speed=1.01x    frame= 2570 fps= 30 q=-1.0 size=   18758KiB time=00:01:25.61 bitrate=1794.8kbits/s speed=1.01x    frame= 2585 fps= 30 q=-1.0 size=   18865KiB time=00:01:26.13 bitrate=1794.3kbits/s speed=1.01x    frame= 2601 fps= 30 q=-1.0 size=   18985KiB time=00:01:26.63 bitrate=1795.2kbits/s speed=1.01x    frame= 2616 fps= 30 q=-1.0 size=   19085KiB time=00:01:27.15 bitrate=1793.9kbits/s speed=1.01x    frame= 2631 fps= 30 q=-1.0 size=   19192KiB time=00:01:27.66 bitrate=1793.4kbits/s speed=1.01x    frame= 2647 fps= 30 q=-1.0 size=   19303KiB time=00:01:28.20 bitrate=1792.9kbits/s speed=1.01x    frame= 2662 fps= 30 q=-1.0 size=   19424KiB time=00:01:28.69 bitrate=1794.1kbits/s speed=1.01x    frame= 2678 fps= 30 q=-1.0 size=   19537KiB time=00:01:29.22 bitrate=1793.7kbits/s speed=1.01x    frame= 2692 fps= 30 q=-1.0 size=   19649KiB time=00:01:29.69 bitrate=1794.5kbits/s speed=1.01x    frame= 2708 fps= 30 q=-1.0 size=   19772KiB time=00:01:30.23 bitrate=1795.1kbits/s speed=1.01x    frame= 2725 fps= 30 q=-1.0 size=   19880KiB time=00:01:30.76 bitrate=1794.3kbits/s speed=1.01x    frame= 2740 fps= 30 q=-1.0 size=   19998KiB time=00:01:31.29 bitrate=1794.4kbits/s speed=1.01x    frame= 2756 fps= 30 q=-1.0 size=   20099KiB time=00:01:31.80 bitrate=1793.5kbits/s speed=1.01x    frame= 2771 fps= 30 q=-1.0 size=   20212KiB time=00:01:32.32 bitrate=1793.5kbits/s speed=1.01x    frame= 2786 fps= 30 q=-1.0 size=   20317KiB time=00:01:32.83 bitrate=1792.9kbits/s speed=1.01x    frame= 2801 fps= 30 q=-1.0 size=   20438KiB time=00:01:33.32 bitrate=1794.0kbits/s speed=1.01x    frame= 2817 fps= 30 q=-1.0 size=   20551KiB time=00:01:33.86 bitrate=1793.7kbits/s speed=1.01x    frame= 2832 fps= 30 q=-1.0 size=   20663KiB time=00:01:34.36 bitrate=1793.8kbits/s speed=1.01x    frame= 2848 fps= 30 q=-1.0 size=   20786KiB time=00:01:34.88 bitrate=1794.6kbits/s speed=1.01x    frame= 2864 fps= 30 q=-1.0 size=   20894KiB time=00:01:35.40 bitrate=1794.1kbits/s speed=1.01x    frame= 2879 fps= 30 q=-1.0 size=   21012KiB time=00:01:35.93 bitrate=1794.3kbits/s speed=1.01x    frame= 2895 fps= 30 q=-1.0 size=   21112KiB time=00:01:36.44 bitrate=1793.3kbits/s speed=1.01x    frame= 2910 fps= 30 q=-1.0 size=   21226KiB time=00:01:36.95 bitrate=1793.4kbits/s speed=1.01x    frame= 2926 fps= 30 q=-1.0 size=   21337KiB time=00:01:37.47 bitrate=1793.3kbits/s speed=1.01x    frame= 2941 fps= 30 q=-1.0 size=   21452KiB time=00:01:38.00 bitrate=1793.2kbits/s speed=1.01x    frame= 2956 fps= 30 q=-1.0 size=   21576KiB time=00:01:38.49 bitrate=1794.5kbits/s speed=1.01x    frame= 2972 fps= 30 q=-1.0 size=   21683KiB time=00:01:39.00 bitrate=1794.2kbits/s speed=   1x    frame= 2987 fps= 30 q=-1.0 size=   21799KiB time=00:01:39.51 bitrate=1794.4kbits/s speed=   1x    frame= 3003 fps= 30 q=-1.0 size=   21907KiB time=00:01:40.03 bitrate=1794.1kbits/s speed=   1x    frame= 3018 fps= 30 q=-1.0 size=   22026KiB time=00:01:40.56 bitrate=1794.2kbits/s speed=1.01x    frame= 3033 fps= 30 q=-1.0 size=   22126KiB time=00:01:41.06 bitrate=1793.4kbits/s speed=   1x    frame= 3049 fps= 30 q=-1.0 size=   22246KiB time=00:01:41.60 bitrate=1793.7kbits/s speed=1.01x    frame= 3065 fps= 30 q=-1.0 size=   22351KiB time=00:01:42.10 bitrate=1793.3kbits/s speed=   1x    frame= 3080 fps= 30 q=-1.0 size=   22465KiB time=00:01:42.61 bitrate=1793.4kbits/s speed=   1x    frame= 3095 fps= 30 q=-1.0 size=   22590KiB time=00:01:43.12 bitrate=1794.4kbits/s speed=   1x    frame= 3111 fps= 30 q=-1.0 size=   22697KiB time=00:01:43.66 bitrate=1793.7kbits/s speed=   1x    frame= 3127 fps= 30 q=-1.0 size=   22822KiB time=00:01:44.17 bitrate=1794.7kbits/s speed=   1x    frame= 3142 fps= 30 q=-1.0 size=   22921KiB time=00:01:44.68 bitrate=1793.6kbits/s speed=   1x    frame= 3157 fps= 30 q=-1.0 size=   23039KiB time=00:01:45.19 bitrate=1794.1kbits/s speed=   1x    frame= 3173 fps= 30 q=-1.0 size=   23139KiB time=00:01:45.70 bitrate=1793.2kbits/s speed=   1x    frame= 3188 fps= 30 q=-1.0 size=   23259KiB time=00:01:46.22 bitrate=1793.8kbits/s speed=   1x    frame= 3204 fps= 30 q=-1.0 size=   23365KiB time=00:01:46.73 bitrate=1793.2kbits/s speed=   1x    frame= 3219 fps= 30 q=-1.0 size=   23479KiB time=00:01:47.24 bitrate=1793.4kbits/s speed=   1x    frame= 3235 fps= 30 q=-1.0 size=   23603KiB time=00:01:47.76 bitrate=1794.2kbits/s speed=   1x    frame= 3250 fps= 30 q=-1.0 size=   23710KiB time=00:01:48.29 bitrate=1793.6kbits/s speed=   1x    frame= 3266 fps= 30 q=-1.0 size=   23836KiB time=00:01:48.80 bitrate=1794.6kbits/s speed=   1x    frame= 3281 fps= 30 q=-1.0 size=   23935KiB time=00:01:49.31 bitrate=1793.6kbits/s speed=   1x    frame= 3296 fps= 30 q=-1.0 size=   24053KiB time=00:01:49.83 bitrate=1794.0kbits/s speed=   1x    frame= 3312 fps= 30 q=-1.0 size=   24153KiB time=00:01:50.36 bitrate=1792.8kbits/s speed=   1x    frame= 3328 fps= 30 q=-1.0 size=   24273KiB time=00:01:50.86 bitrate=1793.5kbits/s speed=   1x    frame= 3343 fps= 30 q=-1.0 size=   24378KiB time=00:01:51.39 bitrate=1792.8kbits/s speed=   1x    frame= 3359 fps= 30 q=-1.0 size=   24499KiB time=00:01:51.90 bitrate=1793.6kbits/s speed=   1x    frame= 3374 fps= 30 q=-1.0 size=   24617KiB time=00:01:52.43 bitrate=1793.6kbits/s speed=   1x    frame= 3390 fps= 30 q=-1.0 size=   24726KiB time=00:01:52.93 bitrate=1793.6kbits/s speed=   1x    frame= 3405 fps= 30 q=-1.0 size=   24849KiB time=00:01:53.44 bitrate=1794.5kbits/s speed=   1x    frame= 3421 fps= 30 q=-1.0 size=   24955KiB time=00:01:53.97 bitrate=1793.7kbits/s speed=   1x    frame= 3436 fps= 30 q=-1.0 size=   25073KiB time=00:01:54.46 bitrate=1794.4kbits/s speed=   1x    frame= 3451 fps= 30 q=-1.0 size=   25167KiB time=00:01:54.99 bitrate=1792.8kbits/s speed=   1x    frame= 3467 fps= 30 q=-1.0 size=   25287KiB time=00:01:55.50 bitrate=1793.5kbits/s speed=   1x    frame= 3482 fps= 30 q=-1.0 size=   25403KiB time=00:01:56.03 bitrate=1793.4kbits/s speed=   1x    frame= 3498 fps= 30 q=-1.0 size=   25513KiB time=00:01:56.53 bitrate=1793.4kbits/s speed=   1x    frame= 3513 fps= 30 q=-1.0 size=   25631KiB time=00:01:57.04 bitrate=1793.8kbits/s speed=   1x    frame= 3529 fps= 30 q=-1.0 size=   25740KiB time=00:01:57.58 bitrate=1793.3kbits/s speed=   1x    frame= 3544 fps= 30 q=-1.0 size=   25871KiB time=00:01:58.10 bitrate=1794.5kbits/s speed=   1x    frame= 3560 fps= 30 q=-1.0 size=   25969KiB time=00:01:58.60 bitrate=1793.7kbits/s speed=   1x    frame= 3575 fps= 30 q=-1.0 size=   26087KiB time=00:01:59.13 bitrate=1793.8kbits/s speed=   1x    frame= 3590 fps= 30 q=-1.0 size=   26180KiB time=00:01:59.63 bitrate=1792.8kbits/s speed=   1x    frame= 3606 fps= 30 q=-1.0 size=   26301KiB time=00:02:00.14 bitrate=1793.3kbits/s speed=   1x    frame= 3622 fps= 30 q=-1.0 size=   26416KiB time=00:02:00.66 bitrate=1793.4kbits/s speed=   1x    frame= 3638 fps= 30 q=-1.0 size=   26528KiB time=00:02:01.19 bitrate=1793.2kbits/s speed=   1x    frame= 3653 fps= 30 q=-1.0 size=   26654KiB time=00:02:01.70 bitrate=1794.2kbits/s speed=   1x    frame= 3668 fps= 30 q=-1.0 size=   26753KiB time=00:02:02.21 bitrate=1793.3kbits/s speed=   1x    frame= 3684 fps= 30 q=-1.0 size=   26885KiB time=00:02:02.74 bitrate=1794.2kbits/s speed=   1x    frame= 3699 fps= 30 q=-1.0 size=   26993KiB time=00:02:03.26 bitrate=1793.9kbits/s speed=   1x    frame= 3715 fps= 30 q=-1.0 size=   27107KiB time=00:02:03.76 bitrate=1794.2kbits/s speed=   1x    frame= 3730 fps= 30 q=-1.0 size=   27203KiB time=00:02:04.28 bitrate=1793.0kbits/s speed=   1x    frame= 3746 fps= 30 q=-1.0 size=   27316KiB time=00:02:04.81 bitrate=1792.8kbits/s speed=   1x    frame= 3762 fps= 30 q=-1.0 size=   27439KiB time=00:02:05.33 bitrate=1793.5kbits/s speed=   1x    frame= 3777 fps= 30 q=-1.0 size=   27542KiB time=00:02:05.86 bitrate=1792.5kbits/s speed=   1x    frame= 3792 fps= 30 q=-1.0 size=   27668KiB time=00:02:06.33 bitrate=1794.0kbits/s speed=   1x    frame= 3808 fps= 30 q=-1.0 size=   27773KiB time=00:02:06.86 bitrate=1793.4kbits/s speed=   1x    frame= 3823 fps= 30 q=-1.0 size=   27898KiB time=00:02:07.40 bitrate=1793.9kbits/s speed=   1x    frame= 3839 fps= 30 q=-1.0 size=   28006KiB time=00:02:07.90 bitrate=1793.8kbits/s speed=   1x    frame= 3854 fps= 30 q=-1.0 size=   28121KiB time=00:02:08.42 bitrate=1793.7kbits/s speed=   1x    frame= 3870 fps= 30 q=-1.0 size=   28224KiB time=00:02:08.93 bitrate=1793.2kbits/s speed=   1x    frame= 3885 fps= 30 q=-1.0 size=   28330KiB time=00:02:09.46 bitrate=1792.6kbits/s speed=   1x    frame= 3901 fps= 30 q=-1.0 size=   28453KiB time=00:02:09.96 bitrate=1793.4kbits/s speed=   1x    frame= 3916 fps= 30 q=-1.0 size=   28555KiB time=00:02:10.48 bitrate=1792.8kbits/s speed=   1x    frame= 3932 fps= 30 q=-1.0 size=   28689KiB time=00:02:11.00 bitrate=1794.1kbits/s speed=   1x    frame= 3947 fps= 30 q=-1.0 size=   28787KiB time=00:02:11.50 bitrate=1793.3kbits/s speed=   1x    frame= 3962 fps= 30 q=-1.0 size=   28912KiB time=00:02:12.03 bitrate=1793.8kbits/s speed=   1x    frame= 3978 fps= 30 q=-1.0 size=   29020KiB time=00:02:12.54 bitrate=1793.5kbits/s speed=   1x    frame= 3993 fps= 30 q=-1.0 size=   29135KiB time=00:02:13.06 bitrate=1793.7kbits/s speed=   1x    frame= 4009 fps= 30 q=-1.0 size=   29237KiB time=00:02:13.56 bitrate=1793.2kbits/s speed=   1x    frame= 4024 fps= 30 q=-1.0 size=   29344KiB time=00:02:14.08 bitrate=1792.8kbits/s speed=   1x    frame= 4040 fps= 30 q=-1.0 size=   29466KiB time=00:02:14.60 bitrate=1793.4kbits/s speed=   1x    frame= 4055 fps= 30 q=-1.0 size=   29569KiB time=00:02:15.11 bitrate=1792.8kbits/s speed=   1x    frame= 4071 fps= 30 q=-1.0 size=   29703KiB time=00:02:15.63 bitrate=1794.0kbits/s speed=   1x    frame= 4086 fps= 30 q=-1.0 size=   29811KiB time=00:02:16.15 bitrate=1793.6kbits/s speed=   1x    frame= 4102 fps= 30 q=-1.0 size=   29932KiB time=00:02:16.66 bitrate=1794.1kbits/s speed=   1x    frame= 4117 fps= 30 q=-1.0 size=   30034KiB time=00:02:17.20 bitrate=1793.3kbits/s speed=   1x    frame= 4133 fps= 30 q=-1.0 size=   30149KiB time=00:02:17.69 bitrate=1793.7kbits/s speed=   1x    frame= 4148 fps= 30 q=-1.0 size=   30251KiB time=00:02:18.22 bitrate=1792.8kbits/s speed=   1x    frame= 4163 fps= 30 q=-1.0 size=   30357KiB time=00:02:18.71 bitrate=1792.7kbits/s speed=   1x    frame= 4179 fps= 30 q=-1.0 size=   30480KiB time=00:02:19.23 bitrate=1793.3kbits/s speed=   1x    frame= 4194 fps= 30 q=-1.0 size=   30583KiB time=00:02:19.74 bitrate=1792.8kbits/s speed=   1x    frame= 4210 fps= 30 q=-1.0 size=   30716KiB time=00:02:20.28 bitrate=1793.8kbits/s speed=   1x    frame= 4225 fps= 30 q=-1.0 size=   30814KiB time=00:02:20.79 bitrate=1792.9kbits/s speed=   1x    frame= 4241 fps= 30 q=-1.0 size=   30945KiB time=00:02:21.30 bitrate=1794.0kbits/s speed=   1x    frame= 4256 fps= 30 q=-1.0 size=   31047KiB time=00:02:21.81 bitrate=1793.4kbits/s speed=   1x    frame= 4272 fps= 30 q=-1.0 size=   31163KiB time=00:02:22.33 bitrate=1793.6kbits/s speed=   1x    frame= 4287 fps= 30 q=-1.0 size=   31265KiB time=00:02:22.84 bitrate=1793.1kbits/s speed=   1x    frame= 4303 fps= 30 q=-1.0 size=   31378KiB time=00:02:23.36 bitrate=1793.0kbits/s speed=   1x    frame= 4318 fps= 30 q=-1.0 size=   31494KiB time=00:02:23.88 bitrate=1793.0kbits/s speed=   1x    frame= 4333 fps= 30 q=-1.0 size=   31596KiB time=00:02:24.40 bitrate=1792.5kbits/s speed=   1x    frame= 4349 fps= 30 q=-1.0 size=   31730KiB time=00:02:24.91 bitrate=1793.7kbits/s speed=   1x    frame= 4365 fps= 30 q=-1.0 size=   31838KiB time=00:02:25.43 bitrate=1793.4kbits/s speed=   1x    frame= 4380 fps= 30 q=-1.0 size=   31959KiB time=00:02:25.95 bitrate=1793.7kbits/s speed=   1x    frame= 4396 fps= 30 q=-1.0 size=   32069KiB time=00:02:26.47 bitrate=1793.6kbits/s speed=   1x    frame= 4411 fps= 30 q=-1.0 size=   32176KiB time=00:02:26.98 bitrate=1793.3kbits/s speed=   1x    frame= 4427 fps= 30 q=-1.0 size=   32286KiB time=00:02:27.50 bitrate=1793.1kbits/s speed=   1x    frame= 4442 fps= 30 q=-1.0 size=   32392KiB time=00:02:28.00 bitrate=1792.9kbits/s speed=   1x    frame= 4457 fps= 30 q=-1.0 size=   32515KiB time=00:02:28.53 bitrate=1793.3kbits/s speed=   1x    frame= 4473 fps= 30 q=-1.0 size=   32617KiB time=00:02:29.05 bitrate=1792.6kbits/s speed=   1x    frame= 4488 fps= 30 q=-1.0 size=   32744KiB time=00:02:29.54 bitrate=1793.7kbits/s speed=   1x    frame= 4504 fps= 30 q=-1.0 size=   32851KiB time=00:02:30.08 bitrate=1793.2kbits/s speed=   1x    frame= 4519 fps= 30 q=-1.0 size=   32973KiB time=00:02:30.59 bitrate=1793.7kbits/s speed=   1x    frame= 4535 fps= 30 q=-1.0 size=   33083KiB time=00:02:31.10 bitrate=1793.5kbits/s speed=   1x    frame= 4550 fps= 30 q=-1.0 size=   33190KiB time=00:02:31.63 bitrate=1793.1kbits/s speed=   1x    frame= 4565 fps= 30 q=-1.0 size=   33292KiB time=00:02:32.12 bitrate=1792.7kbits/s speed=   1x    frame= 4581 fps= 30 q=-1.0 size=   33406KiB time=00:02:32.66 bitrate=1792.6kbits/s speed=   1x    frame= 4596 fps= 30 q=-1.0 size=   33528KiB time=00:02:33.16 bitrate=1793.2kbits/s speed=   1x    frame= 4612 fps= 30 q=-1.0 size=   33631KiB time=00:02:33.68 bitrate=1792.6kbits/s speed=   1x    frame= 4628 fps= 30 q=-1.0 size=   33764KiB time=00:02:34.20 bitrate=1793.7kbits/s speed=   1x    frame= 4643 fps= 30 q=-1.0 size=   33865KiB time=00:02:34.71 bitrate=1793.2kbits/s speed=   1x    frame= 4659 fps= 30 q=-1.0 size=   33988KiB time=00:02:35.24 bitrate=1793.5kbits/s speed=   1x    frame= 4674 fps= 30 q=-1.0 size=   34096KiB time=00:02:35.73 bitrate=1793.5kbits/s speed=   1x    frame= 4689 fps= 30 q=-1.0 size=   34204KiB time=00:02:36.26 bitrate=1793.1kbits/s speed=   1x    frame= 4705 fps= 30 q=-1.0 size=   34313KiB time=00:02:36.80 bitrate=1792.7kbits/s speed=   1x    frame= 4721 fps= 30 q=-1.0 size=   34428KiB time=00:02:37.30 bitrate=1793.0kbits/s speed=   1x    frame= 4736 fps= 30 q=-1.0 size=   34542KiB time=00:02:37.81 bitrate=1793.1kbits/s speed=   1x    frame= 4751 fps= 30 q=-1.0 size=   34655KiB time=00:02:38.32 bitrate=1793.1kbits/s speed=   1x    frame= 4767 fps= 30 q=-1.0 size=   34777KiB time=00:02:38.83 bitrate=1793.7kbits/s speed=   1x    frame= 4782 fps= 30 q=-1.0 size=   34879KiB time=00:02:39.34 bitrate=1793.1kbits/s speed=   1x    frame= 4798 fps= 30 q=-1.0 size=   35001KiB time=00:02:39.85 bitrate=1793.7kbits/s speed=   1x    frame= 4813 fps= 30 q=-1.0 size=   35110KiB time=00:02:40.39 bitrate=1793.2kbits/s speed=   1x    frame= 4829 fps= 30 q=-1.0 size=   35223KiB time=00:02:40.90 bitrate=1793.4kbits/s speed=   1x    frame= 4844 fps= 30 q=-1.0 size=   35327KiB time=00:02:41.41 bitrate=1792.9kbits/s speed=   1x    frame= 4860 fps= 30 q=-1.0 size=   35442KiB time=00:02:41.92 bitrate=1793.0kbits/s speed=   1x    frame= 4875 fps= 30 q=-1.0 size=   35556KiB time=00:02:42.43 bitrate=1793.2kbits/s speed=   1x    frame= 4890 fps= 30 q=-1.0 size=   35669KiB time=00:02:42.95 bitrate=1793.1kbits/s speed=   1x    frame= 4906 fps= 30 q=-1.0 size=   35791KiB time=00:02:43.46 bitrate=1793.6kbits/s speed=   1x    frame= 4921 fps= 30 q=-1.0 size=   35893KiB time=00:02:43.98 bitrate=1793.1kbits/s speed=   1x    frame= 4937 fps= 30 q=-1.0 size=   36015KiB time=00:02:44.50 bitrate=1793.5kbits/s speed=   1x    frame= 4952 fps= 30 q=-1.0 size=   36131KiB time=00:02:45.03 bitrate=1793.5kbits/s speed=   1x    frame= 4968 fps= 30 q=-1.0 size=   36237KiB time=00:02:45.53 bitrate=1793.3kbits/s speed=   1x    frame= 4983 fps= 30 q=-1.0 size=   36341KiB time=00:02:46.04 bitrate=1792.9kbits/s speed=   1x    frame= 4999 fps= 30 q=-1.0 size=   36456KiB time=00:02:46.56 bitrate=1793.0kbits/s speed=   1x    frame= 5015 fps= 30 q=-1.0 size=   36576KiB time=00:02:47.10 bitrate=1793.1kbits/s speed=   1x    frame= 5030 fps= 30 q=-1.0 size=   36682KiB time=00:02:47.60 bitrate=1793.0kbits/s speed=   1x    frame= 5045 fps= 30 q=-1.0 size=   36806KiB time=00:02:48.12 bitrate=1793.4kbits/s speed=   1x    frame= 5061 fps= 30 q=-1.0 size=   36914KiB time=00:02:48.63 bitrate=1793.2kbits/s speed=   1x    frame= 5076 fps= 30 q=-1.0 size=   37029KiB time=00:02:49.12 bitrate=1793.6kbits/s speed=   1x    frame= 5092 fps= 30 q=-1.0 size=   37144KiB time=00:02:49.68 bitrate=1793.3kbits/s speed=   1x    frame= 5107 fps= 30 q=-1.0 size=   37251KiB time=00:02:50.19 bitrate=1793.0kbits/s speed=   1x    frame= 5122 fps= 30 q=-1.0 size=   37354KiB time=00:02:50.72 bitrate=1792.4kbits/s speed=   1x    frame= 5138 fps= 30 q=-1.0 size=   37469KiB time=00:02:51.21 bitrate=1792.7kbits/s speed=   1x    frame= 5154 fps= 30 q=-1.0 size=   37590KiB time=00:02:51.73 bitrate=1793.1kbits/s speed=   1x    frame= 5169 fps= 30 q=-1.0 size=   37696KiB time=00:02:52.24 bitrate=1792.9kbits/s speed=   1x    frame= 5184 fps= 30 q=-1.0 size=   37819KiB time=00:02:52.75 bitrate=1793.4kbits/s speed=   1x    frame= 5200 fps= 30 q=-1.0 size=   37928KiB time=00:02:53.28 bitrate=1793.0kbits/s speed=   1x    frame= 5215 fps= 30 q=-1.0 size=   38042KiB time=00:02:53.80 bitrate=1793.1kbits/s speed=   1x    frame= 5231 fps= 30 q=-1.0 size=   38158KiB time=00:02:54.30 bitrate=1793.4kbits/s speed=   1x    frame= 5246 fps= 30 q=-1.0 size=   38275KiB time=00:02:54.82 bitrate=1793.5kbits/s speed=   1x    frame= 5262 fps= 30 q=-1.0 size=   38375KiB time=00:02:55.33 bitrate=1792.9kbits/s speed=   1x    frame= 5277 fps= 30 q=-1.0 size=   38483KiB time=00:02:55.86 bitrate=1792.6kbits/s speed=   1x    frame= 5293 fps= 30 q=-1.0 size=   38603KiB time=00:02:56.36 bitrate=1793.1kbits/s speed=   1x    frame= 5308 fps= 30 q=-1.0 size=   38710KiB time=00:02:56.87 bitrate=1792.8kbits/s speed=   1x    frame= 5323 fps= 30 q=-1.0 size=   38833KiB time=00:02:57.38 bitrate=1793.3kbits/s speed=   1x    frame= 5339 fps= 30 q=-1.0 size=   38942KiB time=00:02:57.92 bitrate=1793.0kbits/s speed=   1x    frame= 5355 fps= 30 q=-1.0 size=   39063KiB time=00:02:58.43 bitrate=1793.4kbits/s speed=   1x    frame= 5370 fps= 30 q=-1.0 size=   39171KiB time=00:02:58.93 bitrate=1793.4kbits/s speed=   1x    frame= 5385 fps= 30 q=-1.0 size=   39288KiB time=00:02:59.46 bitrate=1793.4kbits/s speed=   1x    frame= 5401 fps= 30 q=-1.0 size=   39389KiB time=00:02:59.97 bitrate=1792.9kbits/s speed=   1x    frame= 5416 fps= 30 q=-1.0 size=   39497KiB time=00:03:00.48 bitrate=1792.7kbits/s speed=   1x    frame= 5432 fps= 30 q=-1.0 size=   39617KiB time=00:03:00.99 bitrate=1793.1kbits/s speed=   1x    frame= 5447 fps= 30 q=-1.0 size=   39724KiB time=00:03:01.51 bitrate=1792.8kbits/s speed=   1x    frame= 5463 fps= 30 q=-1.0 size=   39847KiB time=00:03:02.03 bitrate=1793.2kbits/s speed=   1x    frame= 5478 fps= 30 q=-1.0 size=   39955KiB time=00:03:02.55 bitrate=1792.9kbits/s speed=   1x    frame= 5494 fps= 30 q=-1.0 size=   40077KiB time=00:03:03.06 bitrate=1793.4kbits/s speed=   1x    frame= 5509 fps= 30 q=-1.0 size=   40185KiB time=00:03:03.58 bitrate=1793.2kbits/s speed=   1x    frame= 5525 fps= 30 q=-1.0 size=   40302KiB time=00:03:04.10 bitrate=1793.3kbits/s speed=   1x    frame= 5540 fps= 30 q=-1.0 size=   40403KiB time=00:03:04.60 bitrate=1792.9kbits/s speed=   1x    frame= 5556 fps= 30 q=-1.0 size=   40518KiB time=00:03:05.13 bitrate=1792.9kbits/s speed=   1x    frame= 5571 fps= 30 q=-1.0 size=   40631KiB time=00:03:05.66 bitrate=1792.7kbits/s speed=   1x    frame= 5587 fps= 30 q=-1.0 size=   40746KiB time=00:03:06.16 bitrate=1793.0kbits/s speed=   1x    frame= 5602 fps= 30 q=-1.0 size=   40860KiB time=00:03:06.69 bitrate=1792.9kbits/s speed=   1x    frame= 5618 fps= 30 q=-1.0 size=   40976KiB time=00:03:07.18 bitrate=1793.2kbits/s speed=   1x    frame= 5633 fps= 30 q=-1.0 size=   41090KiB time=00:03:07.72 bitrate=1793.1kbits/s speed=   1x    frame= 5649 fps= 30 q=-1.0 size=   41206KiB time=00:03:08.23 bitrate=1793.3kbits/s speed=   1x    frame= 5664 fps= 30 q=-1.0 size=   41316KiB time=00:03:08.73 bitrate=1793.3kbits/s speed=   1x    frame= 5679 fps= 30 q=-1.0 size=   41417KiB time=00:03:09.26 bitrate=1792.6kbits/s speed=   1x    frame= 5695 fps= 30 q=-1.0 size=   41531KiB time=00:03:09.76 bitrate=1792.9kbits/s speed=   1x    frame= 5710 fps= 30 q=-1.0 size=   41644KiB time=00:03:10.28 bitrate=1792.8kbits/s speed=   1x    frame= 5726 fps= 30 q=-1.0 size=   41760KiB time=00:03:10.82 bitrate=1792.8kbits/s speed=   1x    frame= 5741 fps= 30 q=-1.0 size=   41880KiB time=00:03:11.33 bitrate=1793.1kbits/s speed=   1x    frame= 5757 fps= 30 q=-1.0 size=   41989KiB time=00:03:11.83 bitrate=1793.1kbits/s speed=   1x    frame= 5772 fps= 30 q=-1.0 size=   42113KiB time=00:03:12.35 bitrate=1793.5kbits/s speed=   1x    frame= 5788 fps= 30 q=-1.0 size=   42219KiB time=00:03:12.86 bitrate=1793.3kbits/s speed=   1x    frame= 5803 fps= 30 q=-1.0 size=   42330KiB time=00:03:13.38 bitrate=1793.2kbits/s speed=   1x    frame= 5819 fps= 30 q=-1.0 size=   42431KiB time=00:03:13.89 bitrate=1792.7kbits/s speed=   1x    frame= 5834 fps= 30 q=-1.0 size=   42545KiB time=00:03:14.42 bitrate=1792.6kbits/s speed=   1x    frame= 5850 fps= 30 q=-1.0 size=   42659KiB time=00:03:14.94 bitrate=1792.7kbits/s speed=   1x    frame= 5865 fps= 30 q=-1.0 size=   42774KiB time=00:03:15.45 bitrate=1792.8kbits/s speed=   1x    frame= 5881 fps= 30 q=-1.0 size=   42894KiB time=00:03:15.96 bitrate=1793.1kbits/s speed=   1x    frame= 5896 fps= 30 q=-1.0 size=   43003KiB time=00:03:16.49 bitrate=1792.8kbits/s speed=   1x    frame= 5911 fps= 30 q=-1.0 size=   43127KiB time=00:03:17.00 bitrate=1793.4kbits/s speed=   1x    frame= 5927 fps= 30 q=-1.0 size=   43233KiB time=00:03:17.50 bitrate=1793.2kbits/s speed=   1x    frame= 5942 fps= 30 q=-1.0 size=   43343KiB time=00:03:18.03 bitrate=1793.0kbits/s speed=   1x    frame= 5958 fps= 30 q=-1.0 size=   43444KiB time=00:03:18.54 bitrate=1792.5kbits/s speed=   1x    frame= 5973 fps= 30 q=-1.0 size=   43559KiB time=00:03:19.05 bitrate=1792.6kbits/s speed=   1x    frame= 5989 fps= 30 q=-1.0 size=   43673KiB time=00:03:19.56 bitrate=1792.7kbits/s speed=   1x    frame= 6004 fps= 30 q=-1.0 size=   43787KiB time=00:03:20.10 bitrate=1792.6kbits/s speed=   1x    frame= 6020 fps= 30 q=-1.0 size=   43908KiB time=00:03:20.60 bitrate=1793.1kbits/s speed=   1x    frame= 6035 fps= 30 q=-1.0 size=   44017KiB time=00:03:21.11 bitrate=1793.0kbits/s speed=   1x    frame= 6050 fps= 30 q=-1.0 size=   44141KiB time=00:03:21.62 bitrate=1793.4kbits/s speed=   1x    frame= 6066 fps= 30 q=-1.0 size=   44246KiB time=00:03:22.15 bitrate=1793.0kbits/s speed=   1x    frame= 6082 fps= 30 q=-1.0 size=   44365KiB time=00:03:22.66 bitrate=1793.3kbits/s speed=   1x    frame= 6097 fps= 30 q=-1.0 size=   44458KiB time=00:03:23.16 bitrate=1792.6kbits/s speed=   1x    frame= 6112 fps= 30 q=-1.0 size=   44572KiB time=00:03:23.70 bitrate=1792.5kbits/s speed=   1x    frame= 6128 fps= 30 q=-1.0 size=   44686KiB time=00:03:24.20 bitrate=1792.7kbits/s speed=   1x    frame= 6143 fps= 30 q=-1.0 size=   44801KiB time=00:03:24.73 bitrate=1792.6kbits/s speed=   1x    frame= 6159 fps= 30 q=-1.0 size=   44921KiB time=00:03:25.23 bitrate=1793.1kbits/s speed=   1x    frame= 6174 fps= 30 q=-1.0 size=   45030KiB time=00:03:25.76 bitrate=1792.8kbits/s speed=   1x    frame= 6190 fps= 30 q=-1.0 size=   45154KiB time=00:03:26.26 bitrate=1793.3kbits/s speed=   1x    frame= 6205 fps= 30 q=-1.0 size=   45260KiB time=00:03:26.78 bitrate=1793.0kbits/s speed=   1x    frame= 6220 fps= 30 q=-1.0 size=   45370KiB time=00:03:27.28 bitrate=1793.1kbits/s speed=   1x    frame= 6236 fps= 30 q=-1.0 size=   45471KiB time=00:03:27.83 bitrate=1792.3kbits/s speed=   1x    frame= 6252 fps= 30 q=-1.0 size=   45594KiB time=00:03:28.36 bitrate=1792.5kbits/s speed=   1x    frame= 6267 fps= 30 q=-1.0 size=   45707KiB time=00:03:28.86 bitrate=1792.7kbits/s speed=   1x    frame= 6283 fps= 30 q=-1.0 size=   45823KiB time=00:03:29.36 bitrate=1792.9kbits/s speed=   1x    frame= 6298 fps= 30 q=-1.0 size=   45935KiB time=00:03:29.88 bitrate=1792.9kbits/s speed=   1x    frame= 6313 fps= 30 q=-1.0 size=   46050KiB time=00:03:30.39 bitrate=1793.0kbits/s speed=   1x    frame= 6329 fps= 30 q=-1.0 size=   46168KiB time=00:03:30.93 bitrate=1793.0kbits/s speed=   1x    frame= 6344 fps= 30 q=-1.0 size=   46276KiB time=00:03:31.42 bitrate=1793.0kbits/s speed=   1x    frame= 6359 fps= 30 q=-1.0 size=   46384KiB time=00:03:31.93 bitrate=1792.9kbits/s speed=   1x    frame= 6375 fps= 30 q=-1.0 size=   46485KiB time=00:03:32.44 bitrate=1792.5kbits/s speed=   1x    frame= 6391 fps= 30 q=-1.0 size=   46608KiB time=00:03:33.00 bitrate=1792.5kbits/s speed=   1x    frame= 6407 fps= 30 q=-1.0 size=   46720KiB time=00:03:33.49 bitrate=1792.7kbits/s speed=   1x    frame= 6422 fps= 30 q=-1.0 size=   46836KiB time=00:03:34.02 bitrate=1792.7kbits/s speed=   1x    frame= 6437 fps= 30 q=-1.0 size=   46949KiB time=00:03:34.53 bitrate=1792.7kbits/s speed=   1x    frame= 6453 fps= 30 q=-1.0 size=   47064KiB time=00:03:35.03 bitrate=1793.0kbits/s speed=   1x    frame= 6468 fps= 30 q=-1.0 size=   47182KiB time=00:03:35.56 bitrate=1793.0kbits/s speed=   1x    frame= 6484 fps= 30 q=-1.0 size=   47289KiB time=00:03:36.09 bitrate=1792.7kbits/s speed=   1x    frame= 6499 fps= 30 q=-1.0 size=   47406KiB time=00:03:36.58 bitrate=1793.0kbits/s speed=   1x    frame= 6515 fps= 30 q=-1.0 size=   47505KiB time=00:03:37.10 bitrate=1792.5kbits/s speed=   1x    frame= 6530 fps= 30 q=-1.0 size=   47621KiB time=00:03:37.61 bitrate=1792.7kbits/s speed=   1x    frame= 6545 fps= 30 q=-1.0 size=   47734KiB time=00:03:38.12 bitrate=1792.7kbits/s speed=   1x    frame= 6561 fps= 30 q=-1.0 size=   47850KiB time=00:03:38.66 bitrate=1792.7kbits/s speed=   1x    frame= 6577 fps= 30 q=-1.0 size=   47972KiB time=00:03:39.17 bitrate=1793.0kbits/s speed=   1x    frame= 6592 fps= 30 q=-1.0 size=   48077KiB time=00:03:39.68 bitrate=1792.8kbits/s speed=   1x    frame= 6607 fps= 30 q=-1.0 size=   48195KiB time=00:03:40.19 bitrate=1793.0kbits/s speed=   1x    frame= 6623 fps= 30 q=-1.0 size=   48303KiB time=00:03:40.73 bitrate=1792.7kbits/s speed=   1x    frame= 6639 fps= 30 q=-1.0 size=   48426KiB time=00:03:41.22 bitrate=1793.3kbits/s speed=   1x    frame= 6654 fps= 30 q=-1.0 size=   48519KiB time=00:03:41.75 bitrate=1792.4kbits/s speed=   1x    frame= 6669 fps= 30 q=-1.0 size=   48635KiB time=00:03:42.26 bitrate=1792.5kbits/s speed=   1x    frame= 6685 fps= 30 q=-1.0 size=   48748KiB time=00:03:42.78 bitrate=1792.5kbits/s speed=   1x    frame= 6700 fps= 30 q=-1.0 size=   48870KiB time=00:03:43.29 bitrate=1792.9kbits/s speed=   1x    frame= 6716 fps= 30 q=-1.0 size=   48986KiB time=00:03:43.82 bitrate=1792.9kbits/s speed=   1x    frame= 6731 fps= 30 q=-1.0 size=   49091KiB time=00:03:44.33 bitrate=1792.7kbits/s speed=   1x    frame= 6746 fps= 30 q=-1.0 size=   49209KiB time=00:03:44.83 bitrate=1793.0kbits/s speed=   1x    frame= 6762 fps= 30 q=-1.0 size=   49317KiB time=00:03:45.34 bitrate=1792.8kbits/s speed=   1x    frame= 6778 fps= 30 q=-1.0 size=   49440KiB time=00:03:45.86 bitrate=1793.1kbits/s speed=   1x    frame= 6793 fps= 30 q=-1.0 size=   49532KiB time=00:03:46.38 bitrate=1792.4kbits/s speed=   1x    frame= 6809 fps= 30 q=-1.0 size=   49655KiB time=00:03:46.90 bitrate=1792.8kbits/s speed=   1x    frame= 6824 fps= 30 q=-1.0 size=   49761KiB time=00:03:47.43 bitrate=1792.4kbits/s speed=   1x    frame= 6839 fps= 30 q=-1.0 size=   49883KiB time=00:03:47.93 bitrate=1792.8kbits/s speed=   1x    frame= 6855 fps= 30 q=-1.0 size=   50000KiB time=00:03:48.43 bitrate=1793.1kbits/s speed=   1x    frame= 6870 fps= 30 q=-1.0 size=   50105KiB time=00:03:48.96 bitrate=1792.7kbits/s speed=   1x    frame= 6886 fps= 30 q=-1.0 size=   50231KiB time=00:03:49.46 bitrate=1793.2kbits/s speed=   1x    frame= 6901 fps= 30 q=-1.0 size=   50330KiB time=00:03:49.99 bitrate=1792.6kbits/s speed=   1x    frame= 6917 fps= 30 q=-1.0 size=   50454KiB time=00:03:50.55 bitrate=1792.7kbits/s speed=   1x    frame= 6933 fps= 30 q=-1.0 size=   50571KiB time=00:03:51.06 bitrate=1792.9kbits/s speed=   1x    frame= 6949 fps= 30 q=-1.0 size=   50670KiB time=00:03:51.55 bitrate=1792.6kbits/s speed=   1x    frame= 6964 fps= 30 q=-1.0 size=   50786KiB time=00:03:52.06 bitrate=1792.7kbits/s speed=   1x    frame= 6979 fps= 30 q=-1.0 size=   50897KiB time=00:03:52.60 bitrate=1792.6kbits/s speed=   1x    frame= 6995 fps= 30 q=-1.0 size=   51022KiB time=00:03:53.10 bitrate=1793.1kbits/s speed=   1x    frame= 7010 fps= 30 q=-1.0 size=   51120KiB time=00:03:53.60 bitrate=1792.7kbits/s speed=   1x    frame= 7025 fps= 30 q=-1.0 size=   51244KiB time=00:03:54.12 bitrate=1793.1kbits/s speed=   1x    frame= 7041 fps= 30 q=-1.0 size=   51350KiB time=00:03:54.65 bitrate=1792.7kbits/s speed=   1x    frame= 7057 fps= 30 q=-1.0 size=   51474KiB time=00:03:55.16 bitrate=1793.1kbits/s speed=   1x    frame= 7072 fps= 30 q=-1.0 size=   51584KiB time=00:03:55.69 bitrate=1792.9kbits/s speed=   1x    frame= 7088 fps= 30 q=-1.0 size=   51684KiB time=00:03:56.20 bitrate=1792.5kbits/s speed=   1x    frame= 7103 fps= 30 q=-1.0 size=   51808KiB time=00:03:56.73 bitrate=1792.8kbits/s speed=   1x    frame= 7119 fps= 30 q=-1.0 size=   51913KiB time=00:03:57.26 bitrate=1792.4kbits/s speed=   1x    frame= 7134 fps= 30 q=-1.0 size=   52035KiB time=00:03:57.75 bitrate=1792.9kbits/s speed=   1x    frame= 7150 fps= 30 q=-1.0 size=   52141KiB time=00:03:58.28 bitrate=1792.6kbits/s speed=   1x    frame= 7165 fps= 30 q=-1.0 size=   52272KiB time=00:03:58.79 bitrate=1793.2kbits/s speed=   1x    frame= 7180 fps= 30 q=-1.0 size=   52364KiB time=00:03:59.30 bitrate=1792.6kbits/s speed=   1x    frame= 7196 fps= 30 q=-1.0 size=   52488KiB time=00:03:59.83 bitrate=1792.8kbits/s speed=   1x    frame= 7212 fps= 30 q=-1.0 size=   52604KiB time=00:04:00.33 bitrate=1793.1kbits/s speed=   1x    frame= 7227 fps= 30 q=-1.0 size=   52698KiB time=00:04:00.86 bitrate=1792.3kbits/s speed=   1x    frame= 7243 fps= 30 q=-1.0 size=   52822KiB time=00:04:01.36 bitrate=1792.8kbits/s speed=   1x    frame= 7258 fps= 30 q=-1.0 size=   52926KiB time=00:04:01.89 bitrate=1792.4kbits/s speed=   1x    frame= 7274 fps= 30 q=-1.0 size=   53057KiB time=00:04:02.40 bitrate=1793.0kbits/s speed=   1x    frame= 7289 fps= 30 q=-1.0 size=   53155KiB time=00:04:02.91 bitrate=1792.6kbits/s speed=   1x    frame= 7305 fps= 30 q=-1.0 size=   53285KiB time=00:04:03.43 bitrate=1793.2kbits/s speed=   1x    frame= 7320 fps= 30 q=-1.0 size=   53401KiB time=00:04:03.96 bitrate=1793.1kbits/s speed=   1x    frame= 7335 fps= 30 q=-1.0 size=   53501KiB time=00:04:04.45 bitrate=1792.9kbits/s speed=   1x    frame= 7351 fps= 30 q=-1.0 size=   53617KiB time=00:04:04.96 bitrate=1793.0kbits/s speed=   1x    frame= 7367 fps= 30 q=-1.0 size=   53719KiB time=00:04:05.53 bitrate=1792.3kbits/s speed=   1x    frame= 7382 fps= 30 q=-1.0 size=   53836KiB time=00:04:06.03 bitrate=1792.5kbits/s speed=   1x    frame= 7398 fps= 30 q=-1.0 size=   53947KiB time=00:04:06.53 bitrate=1792.6kbits/s speed=   1x    frame= 7413 fps= 30 q=-1.0 size=   54070KiB time=00:04:07.06 bitrate=1792.9kbits/s speed=   1x    frame= 7429 fps= 30 q=-1.0 size=   54193KiB time=00:04:07.56 bitrate=1793.2kbits/s speed=   1x    frame= 7444 fps= 30 q=-1.0 size=   54299KiB time=00:04:08.08 bitrate=1793.0kbits/s speed=   1x    frame= 7459 fps= 30 q=-1.0 size=   54422KiB time=00:04:08.59 bitrate=1793.4kbits/s speed=   1x    frame= 7475 fps= 30 q=-1.0 size=   54517KiB time=00:04:09.10 bitrate=1792.8kbits/s speed=   1x    frame= 7490 fps= 30 q=-1.0 size=   54631KiB time=00:04:09.62 bitrate=1792.9kbits/s speed=   1x    frame= 7506 fps= 30 q=-1.0 size=   54733KiB time=00:04:10.15 bitrate=1792.4kbits/s speed=   1x    frame= 7522 fps= 30 q=-1.0 size=   54857KiB time=00:04:10.66 bitrate=1792.8kbits/s speed=   1x    frame= 7537 fps= 30 q=-1.0 size=   54961KiB time=00:04:11.20 bitrate=1792.4kbits/s speed=   1x    frame= 7553 fps= 30 q=-1.0 size=   55090KiB time=00:04:11.71 bitrate=1792.9kbits/s speed=   1x    frame= 7568 fps= 30 q=-1.0 size=   55206KiB time=00:04:12.20 bitrate=1793.2kbits/s speed=   1x    frame= 7583 fps= 30 q=-1.0 size=   55313KiB time=00:04:12.73 bitrate=1792.9kbits/s speed=   1x    frame= 7598 fps= 30 q=-1.0 size=   55435KiB time=00:04:13.22 bitrate=1793.3kbits/s speed=   1x    frame= 7614 fps= 30 q=-1.0 size=   55530KiB time=00:04:13.76 bitrate=1792.6kbits/s speed=   1x    frame= 7630 fps= 30 q=-1.0 size=   55651KiB time=00:04:14.29 bitrate=1792.8kbits/s speed=   1x    frame= 7645 fps= 30 q=-1.0 size=   55746KiB time=00:04:14.80 bitrate=1792.3kbits/s speed=   1x    frame= 7661 fps= 30 q=-1.0 size=   55871KiB time=00:04:15.32 bitrate=1792.6kbits/s speed=   1x    frame= 7676 fps= 30 q=-1.0 size=   55974KiB time=00:04:15.83 bitrate=1792.3kbits/s speed=   1x    frame= 7692 fps= 30 q=-1.0 size=   56104KiB time=00:04:16.33 bitrate=1793.0kbits/s speed=   1x    frame= 7707 fps= 30 q=-1.0 size=   56227KiB time=00:04:16.86 bitrate=1793.2kbits/s speed=   1x    frame= 7722 fps= 30 q=-1.0 size=   56326KiB time=00:04:17.36 bitrate=1792.9kbits/s speed=   1x    frame= 7738 fps= 30 q=-1.0 size=   56449KiB time=00:04:17.88 bitrate=1793.2kbits/s speed=   1x    frame= 7753 fps= 30 q=-1.0 size=   56550KiB time=00:04:18.39 bitrate=1792.8kbits/s speed=   1x    frame= 7769 fps= 30 q=-1.0 size=   56664KiB time=00:04:18.92 bitrate=1792.7kbits/s speed=   1x    frame= 7784 fps= 30 q=-1.0 size=   56760KiB time=00:04:19.43 bitrate=1792.3kbits/s speed=   1x    frame= 7800 fps= 30 q=-1.0 size=   56884KiB time=00:04:19.95 bitrate=1792.6kbits/s speed=   1x    frame= 7816 fps= 30 q=-1.0 size=   57010KiB time=00:04:20.46 bitrate=1793.0kbits/s speed=   1x    frame= 7831 fps= 30 q=-1.0 size=   57118KiB time=00:04:21.00 bitrate=1792.8kbits/s speed=   1x    frame= 7846 fps= 30 q=-1.0 size=   57241KiB time=00:04:21.49 bitrate=1793.2kbits/s speed=   1x    frame= 7862 fps= 30 q=-1.0 size=   57341KiB time=00:04:22.00 bitrate=1792.9kbits/s speed=   1x    frame= 7877 fps= 30 q=-1.0 size=   57462KiB time=00:04:22.53 bitrate=1793.0kbits/s speed=   1x    frame= 7893 fps= 30 q=-1.0 size=   57563KiB time=00:04:23.02 bitrate=1792.8kbits/s speed=   1x    frame= 7908 fps= 30 q=-1.0 size=   57678KiB time=00:04:23.56 bitrate=1792.7kbits/s speed=   1x    frame= 7923 fps= 30 q=-1.0 size=   57774KiB time=00:04:24.06 bitrate=1792.3kbits/s speed=   1x    frame= 7939 fps= 30 q=-1.0 size=   57898KiB time=00:04:24.59 bitrate=1792.6kbits/s speed=   1x    frame= 7955 fps= 30 q=-1.0 size=   58024KiB time=00:04:25.10 bitrate=1793.0kbits/s speed=   1x    frame= 7970 fps= 30 q=-1.0 size=   58131KiB time=00:04:25.63 bitrate=1792.7kbits/s speed=   1x    frame= 7986 fps= 30 q=-1.0 size=   58255KiB time=00:04:26.13 bitrate=1793.2kbits/s speed=   1x    frame= 8001 fps= 30 q=-1.0 size=   58355KiB time=00:04:26.63 bitrate=1792.9kbits/s speed=   1x    frame= 8016 fps= 30 q=-1.0 size=   58476KiB time=00:04:27.15 bitrate=1793.1kbits/s speed=   1x    frame= 8032 fps= 30 q=-1.0 size=   58577KiB time=00:04:27.68 bitrate=1792.6kbits/s speed=   1x    frame= 8047 fps= 30 q=-1.0 size=   58691KiB time=00:04:28.16 bitrate=1792.9kbits/s speed=   1x    frame= 8062 fps= 30 q=-1.0 size=   58789KiB time=00:04:28.70 bitrate=1792.3kbits/s speed=   1x    frame= 8079 fps= 30 q=-1.0 size=   58918KiB time=00:04:29.24 bitrate=1792.6kbits/s speed=   1x    frame= 8094 fps= 30 q=-1.0 size=   59037KiB time=00:04:29.75 bitrate=1792.8kbits/s speed=   1x    frame= 8110 fps= 30 q=-1.0 size=   59146KiB time=00:04:30.26 bitrate=1792.7kbits/s speed=   1x    frame= 8125 fps= 30 q=-1.0 size=   59269KiB time=00:04:30.80 bitrate=1792.9kbits/s speed=   1x    frame= 8140 fps= 30 q=-1.0 size=   59375KiB time=00:04:31.30 bitrate=1792.9kbits/s speed=   1x    frame= 8156 fps= 30 q=-1.0 size=   59497KiB time=00:04:31.82 bitrate=1793.1kbits/s speed=   1x    frame= 8171 fps= 30 q=-1.0 size=   59591KiB time=00:04:32.31 bitrate=1792.6kbits/s speed=   1x    frame= 8187 fps= 30 q=-1.0 size=   59711KiB time=00:04:32.82 bitrate=1792.9kbits/s speed=   1x    frame= 8202 fps= 30 q=-1.0 size=   59803KiB time=00:04:33.36 bitrate=1792.1kbits/s speed=   1x    frame= 8218 fps= 30 q=-1.0 size=   59932KiB time=00:04:33.87 bitrate=1792.6kbits/s speed=   1x    frame= 8233 fps= 30 q=-1.0 size=   60051KiB time=00:04:34.39 bitrate=1792.8kbits/s speed=   1x    frame= 8248 fps= 30 q=-1.0 size=   60159KiB time=00:04:34.90 bitrate=1792.7kbits/s speed=   1x    frame= 8264 fps= 30 q=-1.0 size=   60282KiB time=00:04:35.43 bitrate=1792.9kbits/s speed=   1x    frame= 8279 fps= 30 q=-1.0 size=   60382KiB time=00:04:35.92 bitrate=1792.7kbits/s speed=   1x    frame= 8295 fps= 30 q=-1.0 size=   60511KiB time=00:04:36.46 bitrate=1793.0kbits/s speed=   1x    frame= 8311 fps= 30 q=-1.0 size=   60613KiB time=00:04:36.97 bitrate=1792.7kbits/s speed=   1x    frame= 8326 fps= 30 q=-1.0 size=   60725KiB time=00:04:37.48 bitrate=1792.7kbits/s speed=   1x    frame= 8342 fps= 30 q=-1.0 size=   60841KiB time=00:04:37.99 bitrate=1792.9kbits/s speed=   1x    frame= 8357 fps= 30 q=-1.0 size=   60946KiB time=00:04:38.50 bitrate=1792.7kbits/s speed=   1x    frame= 8372 fps= 30 q=-1.0 size=   61072KiB time=00:04:39.03 bitrate=1793.0kbits/s speed=   1x    frame= 8388 fps= 30 q=-1.0 size=   61174KiB time=00:04:39.55 bitrate=1792.6kbits/s speed=   1x    frame= 8403 fps= 30 q=-1.0 size=   61296KiB time=00:04:40.06 bitrate=1792.9kbits/s speed=   1x    frame= 8419 fps= 30 q=-1.0 size=   61402KiB time=00:04:40.56 bitrate=1792.9kbits/s speed=   1x    frame= 8434 fps= 30 q=-1.0 size=   61525KiB time=00:04:41.07 bitrate=1793.2kbits/s speed=   1x    frame= 8450 fps= 30 q=-1.0 size=   61626KiB time=00:04:41.62 bitrate=1792.6kbits/s speed=   1x    frame= 8465 fps= 30 q=-1.0 size=   61739KiB time=00:04:42.13 bitrate=1792.6kbits/s speed=   1x    frame= 8480 fps= 30 q=-1.0 size=   61830KiB time=00:04:42.62 bitrate=1792.1kbits/s speed=   1x    frame= 8496 fps= 30 q=-1.0 size=   61960KiB time=00:04:43.16 bitrate=1792.5kbits/s speed=   1x    frame= 8512 fps= 30 q=-1.0 size=   62085KiB time=00:04:43.66 bitrate=1793.0kbits/s speed=   1x    frame= 8527 fps= 30 q=-1.0 size=   62194KiB time=00:04:44.19 bitrate=1792.8kbits/s speed=   1x    frame= 8543 fps= 30 q=-1.0 size=   62316KiB time=00:04:44.72 bitrate=1792.9kbits/s speed=   1x    frame= 8558 fps= 30 q=-1.0 size=   62416KiB time=00:04:45.23 bitrate=1792.6kbits/s speed=   1x    frame= 8574 fps= 30 q=-1.0 size=   62544KiB time=00:04:45.72 bitrate=1793.2kbits/s speed=   1x    frame= 8589 fps= 30 q=-1.0 size=   62640KiB time=00:04:46.23 bitrate=1792.7kbits/s speed=   1x    frame= 8604 fps= 30 q=-1.0 size=   62752KiB time=00:04:46.75 bitrate=1792.7kbits/s speed=   1x    frame= 8620 fps= 30 q=-1.0 size=   62868KiB time=00:04:47.26 bitrate=1792.8kbits/s speed=   1x    frame= 8635 fps= 30 q=-1.0 size=   62973KiB time=00:04:47.77 bitrate=1792.6kbits/s speed=   1x    frame= 8650 fps= 30 q=-1.0 size=   63099KiB time=00:04:48.29 bitrate=1793.0kbits/s speed=   1x    frame= 8667 fps= 30 q=-1.0 size=   63207KiB time=00:04:48.82 bitrate=1792.8kbits/s speed=   1x    frame= 8682 fps= 30 q=-1.0 size=   63330KiB time=00:04:49.33 bitrate=1793.1kbits/s speed=   1x    frame= 8697 fps= 30 q=-1.0 size=   63430KiB time=00:04:49.84 bitrate=1792.7kbits/s speed=   1x    frame= 8713 fps= 30 q=-1.0 size=   63558KiB time=00:04:50.38 bitrate=1793.0kbits/s speed=   1x    frame= 8728 fps= 30 q=-1.0 size=   63654KiB time=00:04:50.89 bitrate=1792.6kbits/s speed=   1x    frame= 8744 fps= 30 q=-1.0 size=   63766KiB time=00:04:51.40 bitrate=1792.6kbits/s speed=   1x    frame= 8759 fps= 30 q=-1.0 size=   63883KiB time=00:04:51.92 bitrate=1792.7kbits/s speed=   1x    frame= 8775 fps= 30 q=-1.0 size=   63988KiB time=00:04:52.45 bitrate=1792.4kbits/s speed=   1x    frame= 8790 fps= 30 q=-1.0 size=   64113KiB time=00:04:52.94 bitrate=1792.9kbits/s speed=   1x    frame= 8806 fps= 30 q=-1.0 size=   64221KiB time=00:04:53.45 bitrate=1792.8kbits/s speed=   1x    frame= 8821 fps= 30 q=-1.0 size=   64343KiB time=00:04:53.96 bitrate=1793.0kbits/s speed=   1x    frame= 8836 fps= 30 q=-1.0 size=   64444KiB time=00:04:54.50 bitrate=1792.6kbits/s speed=   1x    frame= 8852 fps= 30 q=-1.0 size=   64572KiB time=00:04:55.00 bitrate=1793.1kbits/s speed=   1x    frame= 8867 fps= 30 q=-1.0 size=   64674KiB time=00:04:55.52 bitrate=1792.8kbits/s speed=   1x    frame= 8883 fps= 30 q=-1.0 size=   64780KiB time=00:04:56.03 bitrate=1792.6kbits/s speed=   1x    frame= 8898 fps= 30 q=-1.0 size=   64896KiB time=00:04:56.55 bitrate=1792.7kbits/s speed=   1x    frame= 8914 fps= 30 q=-1.0 size=   65001KiB time=00:04:57.06 bitrate=1792.5kbits/s speed=   1x    frame= 8929 fps= 30 q=-1.0 size=   65127KiB time=00:04:57.60 bitrate=1792.7kbits/s speed=   1x    frame= 8945 fps= 30 q=-1.0 size=   65235KiB time=00:04:58.13 bitrate=1792.5kbits/s speed=   1x    frame= 8960 fps= 30 q=-1.0 size=   65357KiB time=00:04:58.63 bitrate=1792.9kbits/s speed=   1x    frame= 8976 fps= 30 q=-1.0 size=   65468KiB time=00:04:59.13 bitrate=1792.9kbits/s speed=   1x    frame= 8991 fps= 30 q=-1.0 size=   65586KiB time=00:04:59.64 bitrate=1793.0kbits/s speed=   1x    frame= 9007 fps= 30 q=-1.0 size=   65687KiB time=00:05:00.16 bitrate=1792.7kbits/s speed=   1x    frame= 9022 fps= 30 q=-1.0 size=   65794KiB time=00:05:00.69 bitrate=1792.5kbits/s speed=   1x    frame= 9038 fps= 30 q=-1.0 size=   65910KiB time=00:05:01.20 bitrate=1792.5kbits/s speed=   1x    frame= 9053 fps= 30 q=-1.0 size=   66015KiB time=00:05:01.72 bitrate=1792.4kbits/s speed=   1x    frame= 9069 fps= 30 q=-1.0 size=   66147KiB time=00:05:02.23 bitrate=1792.9kbits/s speed=   1x    frame= 9084 fps= 30 q=-1.0 size=   66248KiB time=00:05:02.76 bitrate=1792.5kbits/s speed=   1x    frame= 9099 fps= 30 q=-1.0 size=   66378KiB time=00:05:03.26 bitrate=1793.0kbits/s speed=   1x    frame= 9114 fps= 30 q=-1.0 size=   66471KiB time=00:05:03.76 bitrate=1792.6kbits/s speed=   1x    frame= 9130 fps= 30 q=-1.0 size=   66599KiB time=00:05:04.30 bitrate=1792.9kbits/s speed=   1x    frame= 9146 fps= 30 q=-1.0 size=   66701KiB time=00:05:04.80 bitrate=1792.7kbits/s speed=   1x    frame= 9161 fps= 30 q=-1.0 size=   66807KiB time=00:05:05.32 bitrate=1792.5kbits/s speed=   1x    frame= 9177 fps= 30 q=-1.0 size=   66924KiB time=00:05:05.86 bitrate=1792.4kbits/s speed=   1x    frame= 9192 fps= 30 q=-1.0 size=   67029KiB time=00:05:06.35 bitrate=1792.4kbits/s speed=   1x    frame= 9208 fps= 30 q=-1.0 size=   67161KiB time=00:05:06.86 bitrate=1792.9kbits/s speed=   1x    frame= 9223 fps= 30 q=-1.0 size=   67262KiB time=00:05:07.40 bitrate=1792.5kbits/s speed=   1x    frame= 9239 fps= 30 q=-1.0 size=   67391KiB time=00:05:07.89 bitrate=1793.1kbits/s speed=   1x    frame= 9253 fps= 30 q=-1.0 size=   67484KiB time=00:05:08.40 bitrate=1792.6kbits/s speed=   1x    frame= 9269 fps= 30 q=-1.0 size=   67613KiB time=00:05:08.91 bitrate=1793.0kbits/s speed=   1x    frame= 9285 fps= 30 q=-1.0 size=   67715KiB time=00:05:09.44 bitrate=1792.6kbits/s speed=   1x    frame= 9300 fps= 30 q=-1.0 size=   67827KiB time=00:05:09.96 bitrate=1792.6kbits/s speed=   1x    frame= 9316 fps= 30 q=-1.0 size=   67937KiB time=00:05:10.47 bitrate=1792.5kbits/s speed=   1x    frame= 9331 fps= 30 q=-1.0 size=   68049KiB time=00:05:11.00 bitrate=1792.5kbits/s speed=   1x    frame= 9347 fps= 30 q=-1.0 size=   68174KiB time=00:05:11.50 bitrate=1792.9kbits/s speed=   1x    frame= 9362 fps= 30 q=-1.0 size=   68276KiB time=00:05:12.01 bitrate=1792.6kbits/s speed=   1x    frame= 9378 fps= 30 q=-1.0 size=   68405KiB time=00:05:12.56 bitrate=1792.8kbits/s speed=   1x    frame= 9394 fps= 30 q=-1.0 size=   68517KiB time=00:05:13.07 bitrate=1792.8kbits/s speed=   1x    frame= 9409 fps= 30 q=-1.0 size=   68635KiB time=00:05:13.60 bitrate=1792.9kbits/s speed=   1x    frame= 9425 fps= 30 q=-1.0 size=   68735KiB time=00:05:14.12 bitrate=1792.5kbits/s speed=   1x    frame= 9440 fps= 30 q=-1.0 size=   68841KiB time=00:05:14.63 bitrate=1792.4kbits/s speed=   1x    frame= 9455 fps= 30 q=-1.0 size=   68959KiB time=00:05:15.13 bitrate=1792.6kbits/s speed=   1x    frame= 9471 fps= 30 q=-1.0 size=   69063KiB time=00:05:15.66 bitrate=1792.3kbits/s speed=   1x    frame= 9487 fps= 30 q=-1.0 size=   69195KiB time=00:05:16.17 bitrate=1792.8kbits/s speed=   1x    frame= 9502 fps= 30 q=-1.0 size=   69308KiB time=00:05:16.70 bitrate=1792.8kbits/s speed=   1x    frame= 9518 fps= 30 q=-1.0 size=   69420KiB time=00:05:17.22 bitrate=1792.7kbits/s speed=   1x    frame= 9533 fps= 30 q=-1.0 size=   69531KiB time=00:05:17.71 bitrate=1792.8kbits/s speed=   1x    frame= 9548 fps= 30 q=-1.0 size=   69648KiB time=00:05:18.23 bitrate=1792.9kbits/s speed=   1x    frame= 9564 fps= 30 q=-1.0 size=   69749KiB time=00:05:18.73 bitrate=1792.6kbits/s speed=   1x    frame= 9579 fps= 30 q=-1.0 size=   69854KiB time=00:05:19.26 bitrate=1792.4kbits/s speed=   1x    frame= 9595 fps= 30 q=-1.0 size=   69973KiB time=00:05:19.76 bitrate=1792.6kbits/s speed=   1x    frame= 9610 fps= 30 q=-1.0 size=   70077KiB time=00:05:20.29 bitrate=1792.3kbits/s speed=   1x    frame= 9626 fps= 30 q=-1.0 size=   70209KiB time=00:05:20.80 bitrate=1792.8kbits/s speed=   1x    frame= 9641 fps= 30 q=-1.0 size=   70322KiB time=00:05:21.33 bitrate=1792.8kbits/s speed=   1x    frame= 9657 fps= 30 q=-1.0 size=   70434KiB time=00:05:21.83 bitrate=1792.8kbits/s speed=   1x    frame= 9672 fps= 30 q=-1.0 size=   70545KiB time=00:05:22.36 bitrate=1792.7kbits/s speed=   1x    frame= 9688 fps= 30 q=-1.0 size=   70662KiB time=00:05:22.86 bitrate=1792.9kbits/s speed=   1x    frame= 9703 fps= 30 q=-1.0 size=   70769KiB time=00:05:23.40 bitrate=1792.6kbits/s speed=   1x    frame= 9718 fps= 30 q=-1.0 size=   70868KiB time=00:05:23.90 bitrate=1792.4kbits/s speed=   1x    frame= 9734 fps= 30 q=-1.0 size=   70987KiB time=00:05:24.43 bitrate=1792.4kbits/s speed=   1x    frame= 9750 fps= 30 q=-1.0 size=   71101KiB time=00:05:24.93 bitrate=1792.6kbits/s speed=   1x    frame= 9765 fps= 30 q=-1.0 size=   71223KiB time=00:05:25.46 bitrate=1792.7kbits/s speed=   1x    frame= 9781 fps= 30 q=-1.0 size=   71335KiB time=00:05:25.97 bitrate=1792.7kbits/s speed=   1x    frame= 9796 fps= 30 q=-1.0 size=   71454KiB time=00:05:26.48 bitrate=1792.9kbits/s speed=   1x    frame= 9812 fps= 30 q=-1.0 size=   71566KiB time=00:05:27.02 bitrate=1792.7kbits/s speed=   1x    frame= 9827 fps= 30 q=-1.0 size=   71676KiB time=00:05:27.51 bitrate=1792.8kbits/s speed=   1x    frame= 9842 fps= 30 q=-1.0 size=   71783KiB time=00:05:28.02 bitrate=1792.7kbits/s speed=   1x    frame= 9858 fps= 30 q=-1.0 size=   71891KiB time=00:05:28.53 bitrate=1792.6kbits/s speed=   1x    frame= 9873 fps= 30 q=-1.0 size=   72000KiB time=00:05:29.06 bitrate=1792.4kbits/s speed=   1x    frame= 9889 fps= 30 q=-1.0 size=   72115KiB time=00:05:29.56 bitrate=1792.5kbits/s speed=   1x    frame= 9904 fps= 30 q=-1.0 size=   72236KiB time=00:05:30.09 bitrate=1792.7kbits/s speed=   1x    frame= 9920 fps= 30 q=-1.0 size=   72349KiB time=00:05:30.60 bitrate=1792.7kbits/s speed=   1x    frame= 9935 fps= 30 q=-1.0 size=   72468KiB time=00:05:31.13 bitrate=1792.8kbits/s speed=   1x    frame= 9950 fps= 30 q=-1.0 size=   72572KiB time=00:05:31.63 bitrate=1792.7kbits/s speed=   1x    frame= 9966 fps= 30 q=-1.0 size=   72689KiB time=00:05:32.16 bitrate=1792.7kbits/s speed=   1x    frame= 9981 fps= 30 q=-1.0 size=   72796KiB time=00:05:32.65 bitrate=1792.7kbits/s speed=   1x    frame= 9997 fps= 30 q=-1.0 size=   72905KiB time=00:05:33.16 bitrate=1792.6kbits/s speed=   1x    frame=10012 fps= 30 q=-1.0 size=   73014KiB time=00:05:33.68 bitrate=1792.5kbits/s speed=   1x    frame=10028 fps= 30 q=-1.0 size=   73128KiB time=00:05:34.19 bitrate=1792.6kbits/s speed=   1x    